<?xml version="1.0" encoding="UTF-8"?>
<svg id="Layer_1" xmlns="http://www.w3.org/2000/svg" version="1.1" viewBox="0 0 214.82 215.49">
  <!-- Generator: Adobe Illustrator 30.2.1, SVG Export Plug-In . SVG Version: 2.1.1 Build 1)  -->
  <defs>
    <style>
      .st0 {
        fill: #f1f1f1;
      }

      .st1 {
        fill: #fff;
      }

      .st2 {
        fill: #4c86fc;
      }

      .st3 {
        fill: #26ee00;
      }

      .st4 {
        fill: #fcfcfc;
      }
    </style>
  </defs>
  <g>
    <path class="st0" d="M43.41-36.4V223.66"/>
    <path class="st4" d="M43.41,223.66l260-.05"/>
  </g>
  <rect class="st2" width="214.82" height="215.49"/>
  <path class="st1" d="M104.2,149.95c14.93,1.21,9.65-8.23,30.53,15.61-28.92,15.98-67.29,1.4-82.68-24.79-11.89-20.24-12.72-46.96,1.44-68.28,15.03-22.63,41.99-33.75,68.83-27.48,38.67,9.03,61.42,53.1,43,89.82-4.79-3.52-8.38-7.4-12.22-11.38-2.74-2.85-4-6.76-3.62-10.69,2.12-22.15-11.21-41.68-33.33-46.55-23.5-5.18-46.91,10.69-50.62,34.7s12.95,46.97,38.68,49.06Z"/>
  <g>
    <polygon class="st3" points="165.88 147.54 164.42 148.79 120.4 105.18 105.32 120.27 149.21 164.25 156.85 156.78 165.88 147.54"/>
    <path class="st3" d="M149.3,164.35l-.1-.1-7.23,7.07.68.09c1.7-2.81,3.9-4.16,6.65-7.06Z"/>
    <polygon class="st3" points="175.84 175.21 154.49 173 175.93 175.86 175.84 175.21"/>
    <path class="st3" d="M171.49,142.74l-5.61,4.8-9.03,9.24-7.64,7.47.1.1c-2.75,2.91-4.94,4.25-6.65,7.06l11.83,1.58,21.35,2.21-4.34-32.47Z"/>
  </g>
</svg>